<svg xmlns="http://www.w3.org/2000/svg" xmlns:xlink="http://www.w3.org/1999/xlink" width="679" height="393" viewBox="0 0 679 393">
    <defs>
        <path id="a" d="M61.535 125.03C93.915 107.4 267.81 57.287 316.067 40.5c48.256-16.785 80.084-35.19 108.41-39.233 28.327-4.044 45.958 1.228 63.07 21.114 11.408 13.258 8.333 29.572-9.225 48.943-7.357 11.192-9.425 19.147-6.205 23.866 4.83 7.079 22.585 9.578 33.749 6.931 11.163-2.646 61.376-18.706 78.627-18.706 17.25 0 36.105 4.99 46.182 31.056 10.077 26.065 0 47.287-8.381 57.644-8.382 10.358-47.998 30.483-50.45 34.455-2.452 3.972-3.869 10.445 0 16.7 3.869 6.256 7.482 6.742 18.23 6.742 7.164 0 20.698-2.247 40.601-6.741 27.102-3.403 42.885 10.118 47.348 40.563 6.694 45.669-21.986 85.97-55.73 98.395-33.743 12.425-87.745 18.981-116.427 18.981-28.682 0-115.868-23.827-209.867-18.98C202.001 367.075 137.878 393 101.35 393c-36.528 0-75.48-6.362-96.189-42.516-20.709-36.155 27.093-59.925 34.736-66.413 7.643-6.487 21.639-16.252 21.639-27.791 0-7.693-5.324-15.259-15.972-22.7-29.881-12.624-43.348-28.707-40.403-48.248 4.419-29.312 23.995-42.67 56.375-60.301z"/>
        <path id="c" d="M3.236 14.427c-.628 0-1.238-.031-1.827-.09L.167 6.809c1.397.218 2.787.315 4.156.315C15.539 7.123 25.33.6 25.33.6 17.11 11.484 9.29 14.427 3.236 14.427z"/>
    </defs>
    <g fill="none" fill-rule="evenodd">
        <g>
            <mask id="b" fill="#fff">
                <use xlink:href="#a"/>
            </mask>
            <use fill="#EEAC2B" fill-rule="nonzero" xlink:href="#a"/>
            <ellipse cx="309" cy="421.5" fill="#C88231" fill-rule="nonzero" mask="url(#b)" rx="209" ry="141.5"/>
            <path fill="#926D3A" d="M456.186 373.902s-29.39 13.789-49.068 4.745c-19.678-9.045-80.468-13.09-118.317-4.745-56.05 12.36-72.702-7.822-66.818-21.12l45.283-5.847s58.472 2.109 102.264 2.635c43.792.527 84.623 17.037 86.656 24.332" mask="url(#b)"/>
            <path fill="#926D3A" d="M425.467 330.542c0 16.332-53.232 29.572-118.894 29.572-65.664 0-118.894-13.24-118.894-29.572s53.23-29.572 118.894-29.572c65.662 0 118.894 13.24 118.894 29.572" mask="url(#b)"/>
        </g>
        <path fill="#32272B" d="M272.896 325.537s-46.222 9.773-36.066 35.017c7.26 18.044 92.8-1.949 135.488-.94 30.547.72 54.314 7.018 62.966 11.044 50.823 23.654 73.706-11.71 17.186-24.504-28.068-6.352-50.562-6.969-82.042-5.445-49.286 2.387-101.077 12.36-103.73 8.113-4.35-6.96 33.763-17.746 33.763-17.746s-4.716-14.153-27.565-5.54"/>
        <path fill="#FFFBEF" d="M266.96 146.448s-8.812 24.244-32.14 60.938c-18.109 28.48-47.567 118.528 83.058 125.17 130.626 6.64 101.34-70.92 89.4-112.877-11.94-41.96 5.4-128.236-45.467-136.01-50.865-7.775-48.148-1.02-66.564 11.083-5.316 3.493-28.287 51.696-28.287 51.696"/>
        <path fill="#F5F0D3" d="M412.075 236.327s-45.388-2.282-50.038-43.197c0 0 15.625 37.145 47.109 32.492 0 0 1.838 6.67 2.929 10.705M293.455 229.8s-15.725 22.248-34.46 10.472c-18.735-11.776-29.183-23.87-29.183-23.87l6.884-13.358s16.47 36.388 56.759 26.757"/>
        <path fill="#F5F0D3" d="M227.778 220.794s-32.184 79.788 54.698 84.539c86.883 4.75 136.059-2.814 134.576-47.453 0 0 16.964 57.57-34.241 69.67-46.364 10.956-114.482 9.707-138.01-13.399-23.528-23.107-38.304-61.478-17.023-93.357"/>
        <path fill="#32272B" d="M367.67 89.787l65.19-.56s-4.868 19.624-64.17 29.067l-1.02-28.507"/>
        <path fill="#E78379" d="M383.96 95.309l36.146 1.492s-12.524 9.934-29.638 12.182l-6.508-13.674"/>
        <path fill="#32272B" d="M319.395 92.676L291.26 41.572s-6.94 38.6-2.723 64.021l30.857-12.917"/>
        <path fill="#E78379" d="M307.375 84.315L294.942 58.13s-3.08 19.806-4.381 38.84c0 0 15.001-6.189 16.814-12.655"/>
        <path fill="#32272B" d="M338.492 80.778S355 142.144 319.898 154.21c-35.101 12.068-52.938-7.762-52.938-7.762s8.34-19.03 14.794-34.806c11.664-28.513 40.453-33.392 56.738-30.864"/>
        <path fill="#32272B" d="M353.404 82.449s-16.308 61.567 4.045 73.984c20.353 12.416 43.029-3.427 43.029-3.427s5.62-70.226-47.074-70.557M343.578 158.363l.553 9.871 1.982.503-1.814-10.19-.72-.184"/>
        <path fill="#32272B" d="M335.153 180.503s9.01-25.167 28.745-16.826c0 0-14.957-2.296-28.745 16.826"/>
        <path fill="#EEAC2B" d="M293.588 123.779l34.37.216s6.22 20.92-15.545 22.638c-21.77 1.717-18.825-22.854-18.825-22.854"/>
        <path fill="#32272B" d="M297.45 120.377l26.83.169s4.859 16.333-12.136 17.675c-16.994 1.34-14.694-17.844-14.694-17.844"/>
        <path fill="#FFFBEF" d="M326.11 127.044a1.949 1.949 0 0 1-1.964 1.935 1.949 1.949 0 0 1-1.94-1.96 1.95 1.95 0 0 1 1.965-1.933 1.949 1.949 0 0 1 1.94 1.958"/>
        <path fill="#EEAC2B" d="M355.14 124.165l34.368.216s6.223 20.922-15.545 22.637c-21.77 1.718-18.824-22.853-18.824-22.853"/>
        <path fill="#32272B" d="M359.001 120.764l26.83.169s4.857 16.333-12.136 17.673C356.699 139.948 359 120.764 359 120.764"/>
        <path fill="#FFFBEF" d="M387.662 127.43a1.95 1.95 0 0 1-1.965 1.936 1.95 1.95 0 0 1-1.94-1.96 1.95 1.95 0 0 1 1.964-1.934 1.95 1.95 0 0 1 1.941 1.959"/>
        <path fill="#697673" d="M329.63 142.445s-10.193 16.837-37.033 7.869c0 0 19.568 6.91 37.032-7.869M331.797 109.915l-.062 10.03-40.206-.253 38.254-1.642 2.014-8.135M354.336 112.013l.701 9.972 36.36-.382-34.03-1.497-3.03-8.093M356.523 142.614s14.69 25.653 32.77 1.743c0 0-15.26 20.714-32.77-1.743"/>
        <path fill="#32272B" d="M382.259 93.178s16.075-.401 20.437 9.534c0 0-11.285-8.056-20.782-7.965 0 0 14.168 1.998 16.961 11.52 0 0-9.7-11.411-18.497-10.015l1.881-3.074M311.774 86.02s-7.34-14.261-18.175-13.327c0 0 12.493 6.023 16.959 14.382 0 0-8.54-11.446-18.261-9.336 0 0 14.69 3.03 17.67 11.401l1.807-3.12"/>
        <path fill="#D9E9C5" d="M335.944 157.336l-63.638-20.287s33.887 13.788 63.638 20.287M335.944 157.336l-69.507-3.255s37.685 4.908 69.507 3.255M331.735 158.506l-63.912 12.247s35.12-3.756 63.912-12.247M351.024 153.046l61.738-25.457s-32.628 16.532-61.738 25.457M351.024 153.046l68.998-8.968s-37.149 7.995-68.998 8.968M355.313 153.866l64.71 6.942s-35.311-.852-64.71-6.942M391.491 162.661s-21.066 1.85-35.796 30.43c0 0 7.854-33.332 35.796-30.43M391.059 251.16s-65.408-76.366-131.502 5.543c0 0 52.582-72.557 131.502-5.543"/>
        <path fill="#32272B" d="M219.763 276.875s38.11 35.733 31.495 48.41c-12.233 23.441-41.832 5.721-52.05-15.13-12.861-26.248-6.838-58.145 20.555-33.28M410.067 229.276s-40.807-5.853-47.578-33.342c-3.672-14.911 16.155-32.275 28.64-32.093 12.487.18.108 15.374.038 26.368-.01 1.613 12.155 5.46 12.155 5.46s5.141 21.532 6.745 33.607"/>
        <path fill="#D59998" d="M233.333 309.553s-10.795-19.844-18.34-11.515c-7.548 8.327 3.96 24.755 14.695 25.404 10.738.646 3.645-13.89 3.645-13.89M220.168 283.962s3.868 6.203-.216 7.132c-5.231 1.19-5.211-13.725.216-7.132M210.713 287.511s5.465 4.865 1.81 6.905c-4.682 2.61-8.881-11.704-1.81-6.905M203.912 295.283s7.007 2.131 4.546 5.511c-3.152 4.327-12.984-6.915-4.546-5.511"/>
        <path fill="#32272B" d="M422.724 276.875s-38.11 35.733-31.494 48.41c12.232 23.441 41.832 5.721 52.049-15.13 12.862-26.248 6.84-58.145-20.555-33.28"/>
        <path fill="#D59998" d="M409.155 309.553s10.795-19.844 18.34-11.515c7.548 8.327-3.96 24.755-14.696 25.404-10.737.646-3.644-13.89-3.644-13.89M422.32 283.962s-3.868 6.203.215 7.132c5.231 1.19 5.212-13.725-.216-7.132M431.776 287.511s-5.466 4.865-1.81 6.905c4.68 2.61 8.88-11.704 1.81-6.905M438.575 295.283s-7.006 2.131-4.545 5.511c3.152 4.327 12.984-6.915 4.545-5.511"/>
        <path fill="#E78379" d="M337.594 150.752s9.525-5.049 12.068-.392c0 0-4.27 10.47-5.385 10.401-1.12-.068-6.683-10.009-6.683-10.009"/>
        <path fill="#697673" d="M325.102 97.187s-10.327 4.62-24.863 3.093c0 0 14.367 4.658 24.863-3.093M382.866 101.313s-11.316-.253-23.784-7.857c0 0 10.965 10.36 23.784 7.857M387.312 166.623l-9.027 14.15s9.574-4.764 9.027-14.15M393.593 169.035l-9.028 14.148s9.572-4.762 9.028-14.148"/>
        <path fill="#EEAC2B" d="M255.858 221.247l121.896-22.638 13.737 78.394-122.654 22.97-12.979-78.726"/>
        <path fill="#FFFBEF" d="M280.961 275.063l-1.522-7.833 8.51-40.105 9.427-1.832 7.202 37.05 4.085-.794 1.523 7.833-4.085.794 1.934 9.948-8.642 1.68-1.934-9.948-16.498 3.207zm6.412-9.375l8.564-1.665-3.944-20.288-.157.03-4.463 21.923zm28.403-30.884l5.755 29.61c.761 3.916 2.78 5.068 5.529 4.534 2.75-.535 4.188-2.36 3.427-6.276l-5.755-29.609c-.762-3.916-2.78-5.069-5.529-4.534-2.75.534-4.189 2.358-3.427 6.275zm-2.993 30.74l-5.542-28.512c-1.706-8.773 1.955-14.687 10.44-16.336 8.484-1.65 14.094 2.463 15.799 11.236l5.542 28.512c1.706 8.773-1.955 14.687-10.44 16.337-8.484 1.649-14.094-2.463-15.8-11.236zm30.399-2.575l-1.523-7.833 8.51-40.105 9.428-1.833 7.202 37.05 4.085-.793 1.522 7.833-4.085.794 1.934 9.948-8.642 1.68-1.933-9.948-16.498 3.207zm6.412-9.376l8.563-1.664-3.944-20.288-.157.03-4.462 21.922z"/>
        <path fill="#E3A32E" d="M268.957 244.108c-6.095-.599-9.989-3.996-9.989-3.996l-1.245-7.551c3.224 2.264 6.626 3.493 9.992 4.018l1.242 7.53"/>
        <g transform="translate(267.548 229.77)">
            <mask id="d" fill="#fff">
                <use xlink:href="#c"/>
            </mask>
            <path fill="#E3A32E" d="M.167 14.427H25.33V.6H.167z" mask="url(#d)"/>
            <text fill="#000" font-family="LucidaGrande, Lucida Grande" font-size="114.185" mask="url(#d)">
                <tspan x="7.752" y="48.555">4</tspan>
            </text>
        </g>
        <path fill="#32272B" d="M253.557 175.209s8.44 21.405 14.266 30.201c5.827 8.795 31.5 17.297 25.632 24.39 0 0-16.467 17.935-41.134-.866-11.59-8.833-17.502-21.548-17.502-21.548s4.73-14.256 18.738-32.177"/>
        <path fill="#697673" d="M271.135 226.947l15.246 7.078s-5.984-8.84-15.246-7.078M275.395 222.2l15.245 7.076s-5.984-8.842-15.245-7.076"/>
        <path fill="#F5F0D3" d="M391.491 277.003l-121.877 26.976-13.756-65.733 2.72-.492 12.557 61.788 120.356-22.54"/>
    </g>
</svg>
