<svg width="207" height="35" viewBox="0 0 207 35" fill="none" xmlns="http://www.w3.org/2000/svg">
<path d="M6.596 26H0.26V23.12H1.952V3.644H0.26V0.799998H7.82C9.548 0.799998 11.18 1.1 12.716 1.7C14.252 2.276 15.596 3.116 16.748 4.22C17.9 5.324 18.812 6.656 19.484 8.216C20.156 9.752 20.492 11.492 20.492 13.436C20.492 14.852 20.24 16.304 19.736 17.792C19.256 19.28 18.464 20.624 17.36 21.824C16.256 23.048 14.816 24.056 13.04 24.848C11.288 25.616 9.14 26 6.596 26ZM4.94 3.644V23.12H7.46C8.876 23.12 10.196 22.892 11.42 22.436C12.644 21.98 13.712 21.32 14.624 20.456C15.512 19.616 16.208 18.608 16.712 17.432C17.24 16.232 17.504 14.888 17.504 13.4C17.504 11.912 17.24 10.568 16.712 9.368C16.208 8.168 15.512 7.136 14.624 6.272C13.712 5.432 12.644 4.784 11.42 4.328C10.196 3.872 8.876 3.644 7.46 3.644H4.94ZM30.9981 26H23.0061V23.156H25.7421V15.344H23.3661V12.5H28.3701L28.5141 14.372C28.5621 14.948 28.5741 15.212 28.5501 15.164C28.5501 15.116 28.5741 15.38 28.6221 15.956C28.9101 15.356 29.2701 14.828 29.7021 14.372C30.1581 13.892 30.6261 13.496 31.1061 13.184C31.6101 12.848 32.0901 12.596 32.5461 12.428C33.0261 12.26 33.4461 12.176 33.8061 12.176L33.5901 15.128C32.9901 15.128 32.4261 15.2 31.8981 15.344C31.3941 15.488 30.9501 15.692 30.5661 15.956C29.9901 16.34 29.5341 16.832 29.1981 17.432C28.8861 18.032 28.7301 18.704 28.7301 19.448V23.156H30.9981V26ZM43.5303 15.092C42.8583 15.092 42.2463 15.212 41.6943 15.452C41.1663 15.668 40.7103 15.98 40.3263 16.388C40.0383 16.724 39.7983 17.108 39.6063 17.54C39.4383 17.972 39.3423 18.44 39.3183 18.944C40.4463 18.536 41.5623 18.128 42.6663 17.72C43.7943 17.288 44.9223 16.868 46.0503 16.46C45.7143 16.052 45.3303 15.728 44.8983 15.488C44.4903 15.224 44.0343 15.092 43.5303 15.092ZM48.1023 24.416C47.5023 25.016 46.8183 25.484 46.0503 25.82C45.2823 26.156 44.4423 26.324 43.5303 26.324C42.5223 26.324 41.5743 26.144 40.6863 25.784C39.8223 25.4 39.0663 24.884 38.4183 24.236C37.7703 23.588 37.2543 22.844 36.8703 22.004C36.5103 21.14 36.3303 20.216 36.3303 19.232C36.3303 18.272 36.5103 17.36 36.8703 16.496C37.2543 15.632 37.7703 14.876 38.4183 14.228C39.0663 13.604 39.8223 13.112 40.6863 12.752C41.5743 12.368 42.5223 12.176 43.5303 12.176C44.2743 12.176 44.9823 12.332 45.6543 12.644C46.3503 12.932 46.9743 13.34 47.5263 13.868C48.0543 14.396 48.5223 15.032 48.9303 15.776C49.3383 16.496 49.6503 17.288 49.8663 18.152C48.2343 18.752 46.6023 19.352 44.9703 19.952C43.3623 20.552 41.7423 21.152 40.1103 21.752C40.4703 22.256 40.9383 22.664 41.5143 22.976C42.1143 23.264 42.7863 23.408 43.5303 23.408C44.0823 23.408 44.5863 23.312 45.0423 23.12C45.4983 22.928 45.9063 22.64 46.2663 22.256L48.1023 24.416ZM69.7093 26H64.3453V25.28C64.3453 25.112 64.3453 24.992 64.3453 24.92C64.3453 24.848 64.3453 24.728 64.3453 24.56C64.3213 24.632 64.2013 24.764 63.9853 24.956C63.7693 25.148 63.4693 25.34 63.0853 25.532C62.6773 25.748 62.1973 25.928 61.6453 26.072C61.0933 26.24 60.4693 26.324 59.7733 26.324C58.7653 26.324 57.8173 26.144 56.9293 25.784C56.0413 25.4 55.2733 24.884 54.6253 24.236C53.9773 23.588 53.4613 22.844 53.0773 22.004C52.7173 21.14 52.5373 20.228 52.5373 19.268C52.5373 18.332 52.7173 17.432 53.0773 16.568C53.4613 15.704 53.9773 14.948 54.6253 14.3C55.2733 13.652 56.0413 13.136 56.9293 12.752C57.8173 12.368 58.7653 12.176 59.7733 12.176C61.0933 12.176 62.1373 12.416 62.9053 12.896C63.6733 13.352 64.1533 13.784 64.3453 14.192C64.3693 13.952 64.3933 13.688 64.4173 13.4C64.4653 13.088 64.4893 12.788 64.4893 12.5H66.9733V23.156H69.7093V26ZM59.7733 15.092C59.1253 15.092 58.5253 15.212 57.9733 15.452C57.4213 15.668 56.9653 15.98 56.6053 16.388C56.2693 16.748 56.0053 17.168 55.8133 17.648C55.6453 18.128 55.5613 18.656 55.5613 19.232C55.5613 19.904 55.6933 20.528 55.9573 21.104C56.2453 21.68 56.6293 22.16 57.1093 22.544C57.4453 22.808 57.8413 23.024 58.2973 23.192C58.7533 23.336 59.2453 23.408 59.7733 23.408C60.3733 23.408 60.9133 23.312 61.3933 23.12C61.8973 22.928 62.3293 22.664 62.6893 22.328C63.0973 21.944 63.4093 21.488 63.6253 20.96C63.8653 20.432 63.9853 19.856 63.9853 19.232C63.9853 18.608 63.8653 18.032 63.6253 17.504C63.4093 16.976 63.1093 16.532 62.7253 16.172C62.3413 15.836 61.8973 15.572 61.3933 15.38C60.9133 15.188 60.3733 15.092 59.7733 15.092ZM80.2168 26H72.2248V23.156H74.9608V15.344H72.5848V12.5H77.5888V12.824C77.6368 13.4 77.6728 13.928 77.6968 14.408C77.7448 14.864 77.7928 15.38 77.8408 15.956C78.3448 14.804 79.1008 13.904 80.1088 13.256C81.1408 12.584 82.3408 12.224 83.7088 12.176C85.0288 12.176 86.0848 12.512 86.8768 13.184C87.6928 13.832 88.1728 14.696 88.3168 15.776C88.8448 14.672 89.6128 13.808 90.6208 13.184C91.6288 12.56 92.7928 12.224 94.1128 12.176C95.5288 12.176 96.6448 12.548 97.4608 13.292C98.2768 14.036 98.7088 15.008 98.7568 16.208V23.156H101.025V26H93.0328V23.156H95.7688V17.576C95.7208 16.928 95.4808 16.376 95.0488 15.92C94.6408 15.44 93.9808 15.176 93.0688 15.128C92.4448 15.128 91.8448 15.236 91.2688 15.452C90.7168 15.668 90.2248 15.968 89.7928 16.352C89.3608 16.736 89.0128 17.192 88.7488 17.72C88.4848 18.248 88.3528 18.824 88.3528 19.448V23.156H90.6208V26H82.6288V23.156H85.3648V17.576C85.3168 16.928 85.0768 16.376 84.6448 15.92C84.2368 15.44 83.5768 15.176 82.6648 15.128C82.0408 15.128 81.4408 15.236 80.8648 15.452C80.3128 15.668 79.8208 15.968 79.3888 16.352C78.9568 16.736 78.6088 17.192 78.3448 17.72C78.0808 18.248 77.9488 18.824 77.9488 19.448V23.156H80.2168V26ZM113.593 35H105.601V32.156H108.841C109.345 31.124 109.849 30.092 110.353 29.06C110.881 28.028 111.409 27.008 111.937 26C111.025 24.2 110.125 22.424 109.237 20.672C108.373 18.92 107.485 17.144 106.573 15.344H103.549V12.5H111.541V15.344H109.633C110.329 16.664 111.025 17.996 111.721 19.34C112.417 20.66 112.993 21.992 113.449 23.336C113.905 21.992 114.469 20.66 115.141 19.34C115.837 17.996 116.533 16.664 117.229 15.344H114.997V12.5H123.241V15.344H120.289C118.873 18.176 117.457 20.984 116.041 23.768C114.649 26.528 113.245 29.324 111.829 32.156H113.593V35ZM132.104 26H125.768V23.12H127.46V3.644H125.768V0.799998H133.328C135.056 0.799998 136.688 1.1 138.224 1.7C139.76 2.276 141.104 3.116 142.256 4.22C143.408 5.324 144.32 6.656 144.992 8.216C145.664 9.752 146 11.492 146 13.436C146 14.852 145.748 16.304 145.244 17.792C144.764 19.28 143.972 20.624 142.868 21.824C141.764 23.048 140.324 24.056 138.548 24.848C136.796 25.616 134.648 26 132.104 26ZM130.448 3.644V23.12H132.968C134.384 23.12 135.704 22.892 136.928 22.436C138.152 21.98 139.22 21.32 140.132 20.456C141.02 19.616 141.716 18.608 142.22 17.432C142.748 16.232 143.012 14.888 143.012 13.4C143.012 11.912 142.748 10.568 142.22 9.368C141.716 8.168 141.02 7.136 140.132 6.272C139.22 5.432 138.152 4.784 136.928 4.328C135.704 3.872 134.384 3.644 132.968 3.644H130.448ZM165.686 26H160.322V25.28C160.322 25.112 160.322 24.992 160.322 24.92C160.322 24.848 160.322 24.728 160.322 24.56C160.298 24.632 160.178 24.764 159.962 24.956C159.746 25.148 159.446 25.34 159.062 25.532C158.654 25.748 158.174 25.928 157.622 26.072C157.07 26.24 156.446 26.324 155.75 26.324C154.742 26.324 153.794 26.144 152.906 25.784C152.018 25.4 151.25 24.884 150.602 24.236C149.954 23.588 149.438 22.844 149.054 22.004C148.694 21.14 148.514 20.228 148.514 19.268C148.514 18.332 148.694 17.432 149.054 16.568C149.438 15.704 149.954 14.948 150.602 14.3C151.25 13.652 152.018 13.136 152.906 12.752C153.794 12.368 154.742 12.176 155.75 12.176C157.07 12.176 158.114 12.416 158.882 12.896C159.65 13.352 160.13 13.784 160.322 14.192C160.346 13.952 160.37 13.688 160.394 13.4C160.442 13.088 160.466 12.788 160.466 12.5H162.95V23.156H165.686V26ZM155.75 15.092C155.102 15.092 154.502 15.212 153.95 15.452C153.398 15.668 152.942 15.98 152.582 16.388C152.246 16.748 151.982 17.168 151.79 17.648C151.622 18.128 151.538 18.656 151.538 19.232C151.538 19.904 151.67 20.528 151.934 21.104C152.222 21.68 152.606 22.16 153.086 22.544C153.422 22.808 153.818 23.024 154.274 23.192C154.73 23.336 155.222 23.408 155.75 23.408C156.35 23.408 156.89 23.312 157.37 23.12C157.874 22.928 158.306 22.664 158.666 22.328C159.074 21.944 159.386 21.488 159.602 20.96C159.842 20.432 159.962 19.856 159.962 19.232C159.962 18.608 159.842 18.032 159.602 17.504C159.386 16.976 159.086 16.532 158.702 16.172C158.318 15.836 157.874 15.572 157.37 15.38C156.89 15.188 156.35 15.092 155.75 15.092ZM176.913 26H171.225V15.416H168.201V12.5H171.225V3.716H174.213V12.5H177.741V15.416H174.213V23.156H176.913V26ZM187.46 15.092C186.788 15.092 186.176 15.212 185.624 15.452C185.096 15.668 184.64 15.98 184.256 16.388C183.968 16.724 183.728 17.108 183.536 17.54C183.368 17.972 183.272 18.44 183.248 18.944C184.376 18.536 185.492 18.128 186.596 17.72C187.724 17.288 188.852 16.868 189.98 16.46C189.644 16.052 189.26 15.728 188.828 15.488C188.42 15.224 187.964 15.092 187.46 15.092ZM192.032 24.416C191.432 25.016 190.748 25.484 189.98 25.82C189.212 26.156 188.372 26.324 187.46 26.324C186.452 26.324 185.504 26.144 184.616 25.784C183.752 25.4 182.996 24.884 182.348 24.236C181.7 23.588 181.184 22.844 180.8 22.004C180.44 21.14 180.26 20.216 180.26 19.232C180.26 18.272 180.44 17.36 180.8 16.496C181.184 15.632 181.7 14.876 182.348 14.228C182.996 13.604 183.752 13.112 184.616 12.752C185.504 12.368 186.452 12.176 187.46 12.176C188.204 12.176 188.912 12.332 189.584 12.644C190.28 12.932 190.904 13.34 191.456 13.868C191.984 14.396 192.452 15.032 192.86 15.776C193.268 16.496 193.58 17.288 193.796 18.152C192.164 18.752 190.532 19.352 188.9 19.952C187.292 20.552 185.672 21.152 184.04 21.752C184.4 22.256 184.868 22.664 185.444 22.976C186.044 23.264 186.716 23.408 187.46 23.408C188.012 23.408 188.516 23.312 188.972 23.12C189.428 22.928 189.836 22.64 190.196 22.256L192.032 24.416ZM205.143 24.668C204.807 25.124 204.339 25.508 203.739 25.82C203.139 26.132 202.359 26.288 201.399 26.288C200.511 26.288 199.659 26.18 198.843 25.964C198.027 25.724 197.379 25.34 196.899 24.812V21.68H199.563V23.084C199.851 23.204 200.127 23.288 200.391 23.336C200.679 23.36 201.027 23.372 201.435 23.372C201.627 23.372 201.819 23.348 202.011 23.3C202.227 23.252 202.419 23.168 202.587 23.048C202.707 22.952 202.803 22.832 202.875 22.688C202.971 22.52 203.019 22.316 203.019 22.076C203.019 21.644 202.887 21.32 202.623 21.104C202.383 20.864 202.047 20.672 201.615 20.528C201.207 20.36 200.751 20.204 200.247 20.06C199.743 19.892 199.263 19.664 198.807 19.376C198.375 19.112 198.015 18.728 197.727 18.224C197.439 17.72 197.295 17.048 197.295 16.208C197.295 15.464 197.439 14.84 197.727 14.336C198.015 13.832 198.375 13.424 198.807 13.112C199.239 12.776 199.707 12.536 200.211 12.392C200.715 12.248 201.171 12.176 201.579 12.176C201.819 12.176 202.107 12.2 202.443 12.248C202.803 12.296 203.163 12.38 203.523 12.5C203.883 12.62 204.231 12.776 204.567 12.968C204.927 13.16 205.239 13.4 205.503 13.688V16.82H202.839V15.272C202.647 15.224 202.467 15.188 202.299 15.164C202.131 15.116 201.951 15.092 201.759 15.092C201.495 15.092 201.267 15.128 201.075 15.2C200.883 15.248 200.727 15.32 200.607 15.416C200.487 15.536 200.403 15.68 200.355 15.848C200.307 15.992 200.295 16.16 200.319 16.352C200.367 16.64 200.547 16.88 200.859 17.072C201.171 17.24 201.543 17.408 201.975 17.576C202.383 17.744 202.827 17.936 203.307 18.152C203.787 18.368 204.231 18.632 204.639 18.944C205.047 19.28 205.383 19.7 205.647 20.204C205.911 20.684 206.043 21.296 206.043 22.04C206.043 22.376 205.971 22.784 205.827 23.264C205.707 23.744 205.479 24.212 205.143 24.668Z" fill="black"/>
</svg>
